<?xml version="1.0" encoding="utf-8"?>
<!-- Generator: Adobe Illustrator 25.2.3, SVG Export Plug-In . SVG Version: 6.00 Build 0)  -->
<svg version="1.1" id="Шар_1" xmlns="http://www.w3.org/2000/svg" xmlns:xlink="http://www.w3.org/1999/xlink" x="0px" y="0px"
	 viewBox="0 0 230 211" style="enable-background:new 0 0 230 211;" xml:space="preserve">
<style type="text/css">
	.st0{fill:#FFFFFF;}
</style>
<path class="st0" d="M170.9,150.9c-9.8-1.2-25.1,3.9-40.9,4.3c7.8-2.6,30.6-11.6,29.4-44.5c-1.2-31-26.1-33.5-45.9-90.5
	c-7.4,16.1-22.9,33.5-12.4,58.3c3.9,9.3,16.3,20,24.5,33.9c-6.8-6.2-24.9-20-52.2-4.3c-26.9,15.5-17.4,38.7-58.6,82.9
	c17.7-1,40.3,4.6,57.3-16.3c6.2-7.5,9.9-22.7,17.7-36.2c-1.7,8.8-4.2,31.9,24,46.8c27.4,14.5,42-5.8,101.3,5.5
	C205,176.3,197.7,154.2,170.9,150.9z M103.3,149.1c-7.5-4.3-11.8-9.6-12.9-11.5c4.6-7.7,10.6-14.7,19.4-19.3
	c7.6-4,14.3-4.8,16.5-4.8c4.2,7.3,7.1,15.4,7.1,24.5c0,9.2-2.7,15.7-3.6,17.2C120.8,155.3,111.7,154,103.3,149.1z"/>
</svg>
